Coordinates
version=1
nRows=5
nColumns=46
inDegrees=yes

Units are S.I. units (second, meters, Newtons, ...)
Angles are in degrees.

endheader
time	pelvis_tilt	pelvis_list	pelvis_rotation	pelvis_tx	pelvis_ty	pelvis_tz	bb_angle	bb_tx	bb_ty	bb_tz	hip_flexion_r	hip_adduction_r	hip_rotation_r	knee_angle_r	knee_angle_r_beta	ankle_angle_r	subtalar_angle_r	mtp_angle_r	crank_angle_r	hip_flexion_l	hip_adduction_l	hip_rotation_l	knee_angle_l	knee_angle_l_beta	ankle_angle_l	subtalar_angle_l	mtp_angle_l	crank_angle_l	lumbar_extension	lumbar_bending	lumbar_rotation	arm_flex_r	arm_add_r	arm_rot_r	elbow_flex_r	pro_sup_r	wrist_flex_r	wrist_dev_r	arm_flex_l	arm_add_l	arm_rot_l	elbow_flex_l	pro_sup_l	wrist_flex_l	wrist_dev_l
      5.00000000	    -10.75965492	     -3.86503059	     -6.48362715	      0.19057922	      1.05715895	     -0.24246004	      0.00000000	      0.50000000	      0.00000000	      0.25000000	     63.70799420	      1.80465582	      0.88480898	     68.83917519	      1.20147026	     18.42528027	      5.26219420	      0.00000000	      0.00000000	     48.08639343	     -8.73641978	      4.74428658	     85.59127094	      1.49384949	     -6.18714825	    -14.53297496	      0.00000000	      0.00000000	    -70.16141638	      3.18886306	      0.77846360	     89.52582761	    -17.71650411	     36.62687002	     73.17553939	     31.19749619	      0.00000000	      0.00000000	     70.04192839	    -40.67425211	     12.47928560	     81.38957351	     47.60808640	      0.00000000	      0.00000000
      5.00500000	    -10.57099164	     -3.43694736	     -6.19507058	      0.19056071	      1.05661949	     -0.24105940	      0.00000000	      0.50000000	      0.00000000	      0.25000000	     62.36404294	      1.40549579	      0.96321654	     66.64276846	      1.16313573	     16.99742343	      5.22293318	      0.00000000	      0.00000000	     48.89447128	     -8.28045284	      4.89732479	     87.92998243	      1.53466770	     -4.82418351	    -14.12699052	      0.00000000	      0.00000000	    -70.07220093	      2.85756069	      0.08123243	     89.50250247	    -17.51932359	     36.63214697	     72.49308581	     31.22102976	      0.00000000	      0.00000000	     70.38962980	    -40.83167022	     12.65337611	     81.02761828	     47.57758065	      0.00000000	      0.00000000
      5.01000000	    -10.43974839	     -2.88388123	     -5.87283992	      0.19050812	      1.05595491	     -0.23960919	      0.00000000	      0.50000000	      0.00000000	      0.25000000	     61.06162769	      0.93216634	      1.18317838	     64.46520113	      1.12513001	     15.66841579	      5.33561912	      0.00000000	      0.00000000	     49.81125955	     -7.71845569	      4.92906645	     90.19867712	      1.57426390	     -3.79442704	    -14.27256800	      0.00000000	      0.00000000	    -69.95174501	      2.45988997	     -0.64411472	     89.46324136	    -17.63274424	     36.57744576	     72.29621936	     31.25485681	      0.00000000	      0.00000000	     70.72029126	    -40.84765730	     12.61629471	     80.94673383	     47.55450587	      0.00000000	      0.00000000
      5.01500000	    -10.28546451	     -2.53086619	     -5.44044355	      0.19039799	      1.05534161	     -0.23802343	      0.00000000	      0.50000000	      0.00000000	      0.25000000	     59.61713026	      0.56346686	      1.18809559	     62.21337231	      1.08582819	     14.19243197	      4.59773555	      0.00000000	      0.00000000	     50.80827570	     -7.30731107	      5.27894269	     92.52208049	      1.61481494	     -2.32237601	    -13.31325039	      0.00000000	      0.00000000	    -69.90328142	      2.19884096	     -1.34537483	     89.44636631	    -17.54878564	     36.73081430	     71.66178975	     31.28794288	      0.00000000	      0.00000000	     71.41713462	    -41.06312348	     12.90094638	     80.53346518	     47.50846306	      0.00000000	      0.00000000
      5.02000000	    -10.29928835	     -2.06304338	     -4.88953046	      0.19027797	      1.05467370	     -0.23629664	      0.00000000	      0.50000000	      0.00000000	      0.25000000	     58.25675744	      0.13042776	      1.40124934	     59.88330753	      1.04516088	     12.68763440	      3.96993397	      0.00000000	      0.00000000	     52.03759721	     -6.79204395	      5.56537236	     94.72404921	      1.65324654	     -1.03244146	    -12.49419463	      0.00000000	      0.00000000	    -69.63303876	      1.95847043	     -2.07802184	     89.39946463	    -17.50467695	     36.71255940	     70.98521710	     31.35182924	      0.00000000	      0.00000000	     72.10547575	    -41.30323861	     13.56870370	     80.02396541	     47.48862889	      0.00000000	      0.00000000
